<svg width="107" height="53" overflow="visible" style="display: block;" viewBox="0 0 107 53" fill="none" xmlns="http://www.w3.org/2000/svg">
<g id="_&#235;&#160;&#136;&#236;&#157;&#180;&#236;&#150;&#180;_1" clip-path="url(#clip0_0_4)">
<path id="Vector" d="M38.8664 31.8999C32.8503 33.5088 26.6537 29.9886 25.0255 24.0314" stroke="var(--stroke-0, #282828)" stroke-width="3" stroke-miterlimit="10"/>
<path id="Vector_2" d="M20.6908 29.8362C27.6939 29.8362 33.3709 24.217 33.3709 17.2855C33.3709 10.3539 27.6939 4.73477 20.6908 4.73477C13.6878 4.73477 8.01072 10.3539 8.01072 17.2855C8.01072 24.217 13.6878 29.8362 20.6908 29.8362Z" fill="var(--fill-0, #005BA9)"/>
<path id="Vector_3" d="M53.759 34.7891C62.5472 34.7891 69.6715 27.7376 69.6715 19.039C69.6715 10.3404 62.5472 3.28884 53.759 3.28884C44.9707 3.28884 37.8464 10.3404 37.8464 19.039C37.8464 27.7376 44.9707 34.7891 53.759 34.7891Z" fill="var(--fill-0, #282828)"/>
<path id="Vector_4" d="M20.6908 52.4742C27.6939 52.4742 33.3709 46.8551 33.3709 39.9235C33.3709 32.992 27.6939 27.3728 20.6908 27.3728C13.6878 27.3728 8.01072 32.992 8.01072 39.9235C8.01072 46.8551 13.6878 52.4742 20.6908 52.4742Z" fill="var(--fill-0, #005BA9)"/>
<path id="Vector_5" d="M20.6908 4.73477H0V52.4742H20.6908V4.73477Z" fill="var(--fill-0, #005BA9)"/>
<path id="Vector_6" d="M69.6742 19.039H37.8464V51.6776H69.6742V19.039Z" fill="var(--fill-0, #282828)"/>
<path id="Vector_7" d="M75.1722 5.74692V37.2498C75.1722 45.9491 82.2958 53 91.0848 53C99.8737 53 106.997 45.9491 106.997 37.2498V5.74692H75.1696H75.1722Z" fill="var(--fill-0, #FFBE0C)"/>
<path id="Vector_8" d="M43.7402 32.0051C44.9519 32.0051 45.9342 31.0328 45.9342 29.8335C45.9342 28.6342 44.9519 27.662 43.7402 27.662C42.5286 27.662 41.5463 28.6342 41.5463 29.8335C41.5463 31.0328 42.5286 32.0051 43.7402 32.0051Z" fill="var(--fill-0, #FFBE0C)"/>
<path id="Vector_9" d="M6.14085 10.3555C6.14085 12.0985 8.024 13.5103 10.3481 13.5103C12.6721 13.5103 14.5553 12.0985 14.5553 10.3555V6.75645H6.1435V10.3555H6.14085Z" fill="var(--fill-0, white)"/>
<path id="Vector_10" d="M15.2884 10.3555C15.2884 12.0985 17.1715 13.5103 19.4956 13.5103C21.8197 13.5103 23.7028 12.0985 23.7028 10.3555V6.75645H15.291V10.3555H15.2884Z" fill="var(--fill-0, white)"/>
<path id="Vector_11" d="M10.627 3.80938H10.0639C9.04437 3.80938 8.2179 4.62741 8.2179 5.63651V8.7308C8.2179 9.7399 9.04437 10.5579 10.0639 10.5579H10.627C11.6465 10.5579 12.4729 9.7399 12.4729 8.7308V5.63651C12.4729 4.62741 11.6465 3.80938 10.627 3.80938Z" fill="var(--fill-0, #282828)"/>
<path id="Vector_12" d="M19.7771 3.80938H19.214C18.1945 3.80938 17.3681 4.62741 17.3681 5.63651V8.7308C17.3681 9.7399 18.1945 10.5579 19.214 10.5579H19.7771C20.7966 10.5579 21.6231 9.7399 21.6231 8.7308V5.63651C21.6231 4.62741 20.7966 3.80938 19.7771 3.80938Z" fill="var(--fill-0, #282828)"/>
<path id="Vector_13" d="M10.3454 0C8.02135 0 6.13819 1.41176 6.13819 3.15476V6.75382H14.55V3.15476C14.55 1.41176 12.6668 0 10.3428 0L10.3454 0Z" fill="var(--fill-0, #005BA9)"/>
<path id="Vector_14" d="M19.4956 0C17.1715 0 15.2884 1.41176 15.2884 3.15476V6.75382H23.7002V3.15476C23.7002 1.41176 21.817 0 19.4929 0L19.4956 0Z" fill="var(--fill-0, #005BA9)"/>
</g>
<defs>
<clipPath id="clip0_0_4">
<rect width="107" height="53" fill="white"/>
</clipPath>
</defs>
</svg>
